<svg xmlns="http://www.w3.org/2000/svg" width="147.075" height="100" viewBox="0 0 38.914 26.458">
  <g fill="#888">
    <path d="M21.5 9.35c4.078-9.237 14.074-6.692 14.044.016-.03 6.708-10.085 8.797-14.045-.015m-18.054 0c0-6.886 9.732-9.06 14.26 0-4.617 8.723-14.26 6.886-14.26 0M0 9.35c0 9.543 13.12 13.096 19.602 3.379 6.718 10.075 19.312 5.851 19.312-3.394 0-9.245-12.535-13.69-19.312-3.367C13.18-4.235 0-.192 0 9.35" fill-rule="evenodd"/>
    <path d="M7.103 10.29h5.775V8.383H7.103zm20.957-.03h-1.905V8.236h1.905V6.33h2.024v1.906h1.905v2.024h-1.905v1.905H28.06z" fill-rule="evenodd"/>
    <path d="M37.549 1.798V.768h.24l.145.703.143-.703h.242v1.03h-.15v-.81l-.158.81h-.155l-.158-.81v.81zm-.5 0V.942h-.236V.768h.634v.174h-.236v.856z"/>
    <path d="M15.157 23.724c.005-1.071-.556-1.58-1.682-1.529v3.059c1.126.051 1.687-.459 1.682-1.53m1.332 0c.01 1.873-.954 2.78-2.813 2.72h-1.593v-5.438h1.593c1.86-.06 2.822.846 2.813 2.718m3.118 2.72c-1.53 0-2.128-.51-2.188-1.8v-3.64h1.4v3.58c-.031.575.232.818.788.818.557 0 .816-.243.786-.818v-3.58h1.393v3.64c-.06 1.29-.648 1.8-2.179 1.8m5.299-5.44h-2.04v1.163h1.355v3.113h-1.354v1.164h4.076V25.28H25.59v-3.113h1.353v-1.163zm6.028 2.72l-1.489-2.72h-1.488v5.44h1.31v-3.27l.312.564 1.489 2.72h1.488v-5.44h-1.31v3.27zm4.584 2.72c-1.566 0-2.3-.865-2.3-2.72 0-1.855.734-2.72 2.3-2.72 1.566 0 2.274.865 2.274 2.72 0 1.855-.708 2.72-2.274 2.72m0-4.31c-.782 0-.849.697-.849 1.59 0 .892.067 1.59.849 1.59s.839-.698.839-1.59c0-.893-.057-1.59-.84-1.59M4.028 24.233h-.924l.454-1.704zm2.083 2.21l-1.83-5.44H2.82l-1.839 5.44h1.572l.29-1.138H4.31l.343 1.139zm2.122-2.76v-1.474h.65c1.227.014.833 1.495.014 1.474zm-1.37-2.68v5.44h1.355v-1.711h.566l.982 1.712h1.593l-1.243-2.01c1.434-.608 1.474-3.43-1.124-3.43z" fill-rule="evenodd"/>
  </g>
</svg>
