<?xml version="1.0" encoding="UTF-8" standalone="no"?>
<!-- Created with Inkscape (http://www.inkscape.org/) -->

<svg
   xmlns:dc="http://purl.org/dc/elements/1.1/"
   xmlns:cc="http://creativecommons.org/ns#"
   xmlns:rdf="http://www.w3.org/1999/02/22-rdf-syntax-ns#"
   xmlns:svg="http://www.w3.org/2000/svg"
   xmlns="http://www.w3.org/2000/svg"
   xmlns:sodipodi="http://sodipodi.sourceforge.net/DTD/sodipodi-0.dtd"
   xmlns:inkscape="http://www.inkscape.org/namespaces/inkscape"
   width="100mm"
   height="73mm"
   viewBox="0 0 100 73"
   version="1.1"
   id="svg4274"
   inkscape:version="0.92.2 (unknown)"
   sodipodi:docname="envelope.svg">
  <defs
     id="defs4268" />
  <sodipodi:namedview
     id="base"
     pagecolor="#ffffff"
     bordercolor="#666666"
     borderopacity="1.0"
     inkscape:pageopacity="0.0"
     inkscape:pageshadow="2"
     inkscape:zoom="0.35"
     inkscape:cx="-147.14286"
     inkscape:cy="560"
     inkscape:document-units="mm"
     inkscape:current-layer="layer1"
     showgrid="false"
     inkscape:window-width="1863"
     inkscape:window-height="1059"
     inkscape:window-x="57"
     inkscape:window-y="21"
     inkscape:window-maximized="1" />
  <metadata
     id="metadata4271">
    <rdf:RDF>
      <cc:Work
         rdf:about="">
        <dc:format>image/svg+xml</dc:format>
        <dc:type
           rdf:resource="http://purl.org/dc/dcmitype/StillImage" />
        <dc:title></dc:title>
      </cc:Work>
    </rdf:RDF>
  </metadata>
  <g
     inkscape:label="Layer 1"
     inkscape:groupmode="layer"
     id="layer1"
     transform="translate(0,-224)">
    <g
       transform="matrix(0.09047809,0,0,-0.0904697,-791.17209,1526.7908)"
       id="g4239"
       style="stroke-width:0.53159261;fill:#bbbbbb;fill-opacity:1">
      <path
         d="m 8744.35,14230.3 v -546.4 l 328.46,273.2 -328.46,273.2"
         style="fill:#bbbbbb;fill-opacity:1;fill-rule:nonzero;stroke:none;stroke-width:0.53159261"
         id="path1630"
         inkscape:connector-curvature="0" />
      <path
         d="m 9762.3,14400.3 h -930.74 c -42.91,0 -78.85,-31.4 -85.89,-72.4 l 434.16,-361.1 72.39,-60.2 c 24.58,-20.5 64.84,-20.5 89.42,0 l 76.06,63.2 430.57,358.1 c -7.12,41 -42.99,72.4 -85.97,72.4"
         style="fill:#bbbbbb;fill-opacity:1;fill-rule:nonzero;stroke:none;stroke-width:0.53159261"
         id="path1632"
         inkscape:connector-curvature="0" />
      <path
         d="m 9849.59,13683.9 v 546.4 l -328.54,-273.2 328.54,-273.2"
         style="fill:#bbbbbb;fill-opacity:1;fill-rule:nonzero;stroke:none;stroke-width:0.53159261"
         id="path1634"
         inkscape:connector-curvature="0" />
      <path
         d="m 9400.46,13856.8 -58.82,-48.9 c -24.58,-20.4 -64.84,-20.4 -89.42,0 l -75.84,63.1 -44.23,36.8 -354.94,-295.1 c 14.89,-12 33.81,-19.3 54.35,-19.3 h 930.74 c 20.54,0 39.46,7.3 54.42,19.3 l -355.01,295.1 -61.25,-51"
         style="fill:#bbbbbb;fill-opacity:1;fill-rule:nonzero;stroke:none;stroke-width:0.53159261"
         id="path1636"
         inkscape:connector-curvature="0" />
    </g>
  </g>
</svg>
