<svg xmlns="http://www.w3.org/2000/svg" id="linkedin-logo" height="50" width="50" viewBox="0 0 49.685001 50">
  <g fill="#bbb" transform="matrix(0.1,0,0,0.1,-20.255198,2.6577731)">
    <g transform="matrix(1.018827,0,0,-1.018827,170.5996,498.03288)">
      <path d="m 67.403071,514.91628 c -19.903436,0 -36.041142,-15.75084 -36.041142,-35.16117 V 59.304434 c 0,-19.4169 16.137706,-35.148605 36.041142,-35.148605 H 482.98877 c 19.9028,0 36.04115,15.731705 36.04115,35.148605 V 479.75511 c 0,19.41033 -16.13835,35.16117 -36.04115,35.16117 z m 75.451349,-82.37795 c 25.19864,0 40.70398,-16.54655 41.18272,-38.29137 0,-21.26612 -15.9871,-38.29136 -41.67297,-38.29136 h -0.47771 c -24.71868,0 -40.70501,17.02524 -40.70501,38.29136 0,21.74482 16.47692,38.29137 41.67297,38.29137 z M 359.99384,330.90154 c 48.46089,0 84.79155,-31.67123 84.79155,-99.73856 V 104.09501 H 371.13178 V 222.6524 c 0,29.79093 -10.65771,50.10813 -37.31085,50.10813 -20.34806,0 -32.46381,-13.70659 -37.78849,-26.93973 -1.94501,-4.73454 -2.42625,-11.34087 -2.42625,-17.96399 v -123.7618 h -73.65367 c 0,0 0.96661,200.80815 0,221.60212 h 73.65367 v -31.40244 c 9.7807,15.10346 27.25944,36.60685 66.38765,36.60685 z m -66.38765,-36.60685 c -0.15196,-0.23464 -0.34197,-0.49767 -0.49026,-0.72911 h 0.49026 z m -188.07517,31.40244 h 73.66623 V 104.09501 h -73.66623 z"/>
    </g>
  </g>
</svg>
