<svg xmlns="http://www.w3.org/2000/svg" height="50" viewBox="0 0 44.341999 50" class="node-logo">
  <g fill="#888" transform="translate(0,-247)">
    <g transform="matrix(1.2999944,0,0,1.2999944,-5.3455488,-88.547537)">
      <g transform="matrix(0.35277777,0,0,-0.35277777,21.163139,296.5763)">
        <path d="m 0,0 c -1.46,0 -2.913,0.382 -4.19,1.121 l -13.34,7.893 c -1.991,1.114 -1.018,1.509 -0.362,1.738 2.658,0.922 3.195,1.135 6.032,2.744 0.295,0.166 0.687,0.103 0.992,-0.076 L -0.62,7.335 c 0.371,-0.206 0.896,-0.206 1.237,0 l 39.954,23.061 c 0.371,0.212 0.61,0.64 0.61,1.081 v 46.108 c 0,0.451 -0.239,0.872 -0.62,1.101 L 0.624,101.727 c -0.369,0.215 -0.859,0.215 -1.231,0 L -40.534,78.679 c -0.388,-0.222 -0.634,-0.656 -0.634,-1.094 V 31.477 c 0,-0.441 0.246,-0.859 0.631,-1.068 l 10.944,-6.324 c 5.939,-2.969 9.575,0.528 9.575,4.041 V 73.65 c 0,0.644 0.517,1.151 1.161,1.151 h 5.066 c 0.634,0 1.158,-0.507 1.158,-1.151 V 28.126 c 0,-7.925 -4.316,-12.47 -11.831,-12.47 -2.309,0 -4.127,0 -9.203,2.501 l -10.476,6.031 c -2.588,1.496 -4.191,4.293 -4.191,7.289 v 46.108 c 0,2.995 1.603,5.792 4.191,7.282 l 39.953,23.087 c 2.528,1.43 5.889,1.43 8.397,0 l 39.95,-23.087 c 2.588,-1.496 4.197,-4.287 4.197,-7.282 V 31.477 c 0,-2.996 -1.609,-5.782 -4.197,-7.289 L 4.207,1.121 C 2.929,0.382 1.48,0 0,0" />
      </g>
      <g transform="matrix(0.35277777,0,0,-0.35277777,25.516873,285.37003)">
        <path d="m 0,0 c -17.483,0 -21.146,8.025 -21.146,14.756 0,0.641 0.514,1.152 1.155,1.152 h 5.165 c 0.577,0 1.058,-0.415 1.148,-0.979 0.78,-5.258 3.105,-7.912 13.678,-7.912 8.417,0 12,1.904 12,6.369 0,2.575 -1.016,4.486 -14.096,5.766 -10.932,1.082 -17.693,3.497 -17.693,12.242 0,8.062 6.794,12.869 18.187,12.869 12.799,0 19.132,-4.442 19.935,-13.974 0.03,-0.328 -0.086,-0.643 -0.305,-0.889 -0.219,-0.229 -0.524,-0.368 -0.846,-0.368 h -5.185 c -0.538,0 -1.013,0.382 -1.122,0.902 -1.244,5.534 -4.27,7.302 -12.477,7.302 -9.19,0 -10.258,-3.201 -10.258,-5.6 0,-2.906 1.26,-3.752 13.668,-5.394 C 14.086,24.619 19.919,22.321 19.919,13.691 19.919,4.986 12.66,0 0,0" />
      </g>
    </g>
  </g>
</svg>
