<svg xmlns="http://www.w3.org/2000/svg" width="576" height="146.88">
    <defs>
        <clipPath id="a">
            <path d="M0 110.16h432V0H0z"/>
        </clipPath>
    </defs>
    <g clip-path="url(#a)" fill="#fffffa" transform="matrix(1.33333 0 0 -1.33333 0 146.88)">
        <path d="M308.035 44.616h-7.8V81.11l-.497.257-18.19-21.719-18.342 22.078V44.636h-7.918v2.626c0 13.962.037 27.925-.06 41.887-.01 1.292-.648 2.736-1.399 3.831-1.372 2-3.048 3.79-4.948 6.094 3.624 0 6.808.065 9.986-.062.546-.02 1.132-.797 1.575-1.328 6.645-7.95 13.267-15.92 19.896-23.884.317-.382.65-.752 1.152-1.33 2.66 3.144 5.246 6.191 7.822 9.25 4.313 5.115 8.677 10.19 12.89 15.387 1.266 1.562 2.59 2.211 4.582 2.065 2.353-.172 4.728-.04 7.618-.04-1.578-1.916-2.763-3.595-4.193-5.03-1.759-1.763-2.24-3.743-2.223-6.193.103-13.602.05-27.205.05-40.808zM112.891 55.19c-.06-26.482-19.622-49.533-45.793-53.886a90.24 90.24 0 0 0-3.63-.51c-1.668-.207-2.333.64-2.416 2.23-.313 5.98-.328 5.979 6.142 7.3 17.784 3.63 32.8 18.776 36.025 36.338 3.463 18.858-4.933 37.252-21.595 47.336-5.414 3.276-11.21 5.476-17.49 6.391-2.884.42-3.065.693-3.074 3.584-.019 5.903-.019 5.903 5.887 4.934 23.95-3.928 42.86-23.747 45.66-47.901.222-1.924.195-3.878.284-5.817M.26 55.145c.155 28.465 22.926 51.205 49.062 54.173 2.568.293 3.1-.197 3.081-2.773-.043-5.84.744-5.479-4.793-6.425-18.208-3.113-33.988-18.56-37.28-36.334-3.602-19.43 5.23-38.3 22.558-48.285 5.301-3.053 10.952-5.066 17.015-5.83 1.911-.242 2.648-1.15 2.517-2.986-.056-.787-.008-1.582-.009-2.374-.004-3.45-.464-3.847-3.928-3.389C26.145 3.877 7.377 20.66 2.123 42.61c-.98 4.092-1.26 8.352-1.864 12.535M429.152 92.012l-4.9-5.785c-1.079.773-2.058 1.473-3.034 2.175-4.77 3.431-10.114 4.77-15.9 4.048-3.847-.48-6.95-2.375-8.655-5.992-1.627-3.449-.407-6.648 3.216-7.81 2.42-.777 5.05-.952 7.604-1.235 4.064-.45 8.195-.47 12.2-1.209 5.464-1.007 9.931-3.717 11.311-9.579 1.486-6.307.695-12.199-4.367-16.854-9.595-8.819-31.172-9.859-41.773 4.847l5.9 5.59c1.061-1.276 1.945-2.613 3.088-3.666 7.34-6.754 17.633-6.167 24.408-2.803 4.253 2.112 5.914 5.8 4.72 9.968-1.15 4.021-4.478 5.024-8.015 5.372-3.57.35-7.192.185-10.763.526-2.697.258-5.454.656-8.007 1.516-7.932 2.675-11.224 10.32-7.979 18.074 2.033 4.86 5.726 8.03 10.517 9.95 9.62 3.856 23.137.714 30.43-7.133M131.408 91.068v-16.89c2.249.488 4.45 1.14 6.697 1.407 2.273.271 4.59.18 6.889.213 2.444.036 4.898-.099 7.33.072 4.672.33 6.954 2.902 6.972 7.602.018 4.788-2.153 7.4-6.922 7.543-6.89.207-13.79.053-20.966.053m-8.02 7.81c.24.086.437.22.632.22 9.86-.032 19.733.212 29.577-.203 8.7-.367 13.739-6.644 13.619-15.953-.112-8.642-5.75-14.705-14.224-15.108-5.1-.244-10.21-.259-15.314-.384a7.447 7.447 0 0 1-1.073-.119c-5.091-.88-5.316-1.146-5.316-6.246V44.618h-7.9zM365.894 98.998h7.792c.032-.702.098-1.459.099-2.215.006-10.513.015-21.024 0-31.536-.015-12.071-7.153-20.107-19.137-21.579-5.942-.731-11.803-.46-17.393 1.862-7.984 3.318-11.95 9.714-12.22 18.031-.376 11.579-.107 23.179-.108 34.77 0 .134.078.268.184.601h7.68v-2.429c0-9.719-.018-19.44.018-29.159.007-1.721.08-3.472.407-5.155.98-5.06 4.104-8.306 8.972-9.811 4.426-1.369 8.945-1.435 13.424-.282 6.678 1.718 10.266 6.427 10.278 13.353.017 10.367.004 20.735.004 31.103z" fill-rule="evenodd"/>
        <path d="M95.845 55.09C95.84 36.642 81.902 20.367 63.69 17.505c-1.8-.283-2.53.499-2.63 2.177-.34 5.754-.343 5.754 5.112 7.523 12.39 4.018 21.111 15.894 20.773 28.284-.362 13.222-9.622 24.679-22.606 27.968-3.277.83-3.277.83-3.28 4.17-.004 5.616.14 5.729 5.551 4.394 17.02-4.196 29.241-19.636 29.235-36.931M17.71 55.205c.004 18.376 13.85 34.548 32.018 37.438 1.766.28 2.589-.39 2.679-2.112.007-.144 0-.288.004-.432.127-5.514.128-5.514-5.06-7.116-12.153-3.754-21.023-15.686-20.828-28.022.208-13.154 9.397-24.864 22.097-28.158 3.79-.984 3.79-.984 3.792-4.815l-.001-1.296c-.01-3.16-.446-3.528-3.558-2.99-17.714 3.06-31.146 19.234-31.142 37.503M192.548 91.092H173.23v7.867h46.17v-7.762h-18.963V44.62h-7.89zM229.896 98.99h7.502V44.622h-7.502zM378.4 12.883c2.324 0 4.532-.047 6.737.01 4.427.114 7.897 3.34 8.397 7.74.53 4.675-2.065 9.07-6.353 9.95-2.818.578-5.789.414-8.782.587zm-4.453-3.677v26.043c5.015-.296 10.086-.056 14.92-1.016 5.914-1.174 9.336-6.684 9.08-12.965-.246-6.02-4.163-11.114-10.152-11.94-4.489-.618-9.13-.122-13.848-.122M340.106 20.557c3.153.197 6.105.157 8.972.634 2.248.374 3.381 2.275 3.43 4.61.05 2.33-1.096 4.408-3.24 4.748-2.989.472-6.056.444-9.162.633zm11.272-3.065c1.873-2.834 3.645-5.52 5.438-8.235-3.677-1.023-4.513-.704-6.31 2.328-3.363 5.67-3.362 5.67-10.394 5.052V8.972h-4.265v25.684c4.558 0 9.085.32 13.544-.095 4.066-.378 6.447-2.987 7.057-6.493.78-4.49-.608-7.782-4.203-9.982-.243-.148-.47-.321-.867-.594M407.374 24.001h12.366v-4.02h-12.428v-7.083h14.397v-4.03h-13.676c-5.305 0-5.305 0-5.305 5.261v20.675h18.514v-3.697h-13.868zM366.888 9.012h-4.159v25.814h4.159z" fill-rule="evenodd"/>
    </g>
</svg>
