<svg xmlns="http://www.w3.org/2000/svg" height="111.5" width="600">
  <g stroke-width=".449">
    <path d="M56.617.591c.769.35 1.128 1.19 1.564 1.894.718 1.161 1.491 2.291 2.165 3.478.34.597.47 1.31.777 1.93.208.42.528.78 1.117.761.176-.007.412.239.534.425.455.696.945 1.045 1.89.865 1.327-.254 2.692-.193 4.036.117.3.069.656-.138.99-.177.48-.054.965-.116 1.443-.093.974.046 1.945.149 2.918.218.082.007.207-.036.25-.099.578-.845 1.529-.616 2.327-.812.894-.22 1.812-.355 2.686-.634.392-.125.684-.536 1.05-.775.403-.262.887-.42 1.246-.727.437-.376.799-.847 1.159-1.304.222-.282.396-.607.563-.928.631-1.214 1.842-1.867 2.755-2.806.385-.396 1.07-.552 1.649-.692.753-.184 1.44.135 2.08.522.631.382.663 1.088.741 1.68.077.584-.112 1.205-.2 1.808a543.818 543.818 0 0 1-.593 3.95c-.22 1.432-1.09 2.534-1.89 3.668-.263.374-.691.688-.806 1.096a2.11 2.11 0 0 0 .118 1.381c.589 1.214 1.387 2.335 1.591 3.709.096.641.166 1.29.183 1.938.078 2.979.738 5.81 2.118 8.457.61 1.17.908 2.415 1.02 3.713.089 1.01.24 2.025.214 3.033a31.04 31.04 0 0 1-.358 4.054c-.187 1.173-.944 2.107-1.65 3.035-.33.433-.692.84-1.012 1.28-.068.094-.052.288-.012.417.744 2.427 1.057 4.9 1.136 7.446.042 1.333-.383 2.407-.878 3.528-.247.56-.497 1.124-.821 1.64-.777 1.233-1.068 2.64-1.444 4.008-.19.687-.011 1.474-.186 2.169-.346 1.376-.72 2.764-1.28 4.062-.336.778-.992 1.45-1.607 2.065-.466.467-.715.97-.792 1.59-.215 1.726-.97 3.23-1.874 4.682-.382.614-.723 1.254-1.067 1.891-1.08 1.998-2.412 3.763-4.417 4.935-.22.13-.394.367-.546.583-.712 1.013-1.314 2.122-2.138 3.03-.853.942-1.89 1.73-2.903 2.508-.458.352-1.042.556-1.592.766-.932.356-1.602 1-2.216 1.76-.525.65-1.083 1.292-1.721 1.825-1.153.964-1.885 2.235-2.722 3.437-.577.828-1.12 1.692-1.794 2.436-.294.324-.865.427-1.332.557-.28.078-.601.013-1.017.013.683.658 1.439.775 2.206.875.68.09 1.352.23 2.033.293 1.02.094 1.617.886 2.393 1.38.9.573 1.79 1.158 2.68 1.747.13.087.342.244.325.333-.134.731.442.986.872 1.291 1.157.824 1.895 1.828 1.713 3.336-.033.274.078.563.08.845a.7.7 0 0 1-.152.446c-.046.05-.298-.002-.381-.085-.295-.292-.557-.616-.83-.93l-1.034-1.182c-.726.935-.73.945-1.74.587a37.15 37.15 0 0 1-2.237-.85c-.36-.153-.545-.007-.608.282-.163.751-.394 1.504-.128 2.289.036.106-.075.37-.154.386a2.762 2.762 0 0 1-.877.039c-.15-.018-.28-.18-.42-.278.4-.706-.497-2.562-1.526-3.025-.143.3-.324.59-.424.906-.22.692-.598.81-1.142.301a25.126 25.126 0 0 1-1.23-1.23c-.947-1.018-1.954-1.974-3.201-2.599-.874-.437-1.816-.738-2.728-1.097-.3-.119-.6-.243-.907-.34-.906-.285-1.683.217-2.646.386.59.699 1.08 1.327 1.619 1.908.936 1.01 1.19 2.191.93 3.498-.113.574-.305 1.134-.495 1.688-.047.134-.228.221-.42.396-.07-.778-.145-1.417-.181-2.059-.028-.488-.3-.744-.703-.955-.307-.16-.466-.031-.613.194-.404.617-1.122.727-1.71.786-.366.037-.816-.496-1.185-.821-.908-.8-1.777-1.644-2.691-2.437-.325-.281-.732-.466-1.232-.635.273.837.529 1.68.822 2.51.291.823.649 1.623.924 2.45.232.694.084.889-.625.854-.991-.05-1.98-.144-2.97-.233-.116-.011-.27-.081-.33-.174-.42-.653-.764-1.363-1.244-1.966-.361-.453-.862-.813-1.349-1.144a8.091 8.091 0 0 0-3.543-1.327c-.437-.057-.944-.005-1.345.17-.873.377-1.706.85-2.54 1.313-.434.242-.682.522-.55 1.154.144.68-.274 1.33-1.127 1.3-.336-.012-.77-.202-1.074.313.558.07.48.168.342.301-.551.53-1.208.243-1.814.269-.124.004-.384-.324-.373-.485.074-1.102.118-2.219.349-3.292.114-.528.58-.997.938-1.452.38-.481.817-.918 1.236-1.368.635-.684.594-1.16-.05-1.837a13.295 13.295 0 0 0-3.353-2.581c-.398-.214-.724-.564-1.083-.852.033-.051-.235.198-.36.4-.669 1.07-1.8 1.519-2.835 2.067-.58.308-1.049.67-1.378 1.22-1.366 2.287-3.278 4.105-5.17 5.931-.294.285-.88.252-1.314.411-.92.338-1.84.677-2.736 1.074-.38.17-.663.155-1.066.034-.941-.284-1.924-.432-2.89-.63-1.383-.285-2.563-.863-3.155-2.248-.226-.531-.525-.95-1.084-1.192-.52-.226-.631-.976-.557-1.786.215-2.366 1.34-4.4 2.343-6.458.999-2.05 2.2-4.003 3.331-5.987a4.5 4.5 0 0 1 .742-.943c1.02-1.012 1.362-2.387 2.091-3.718l-3.096.95c-.107-.709-.266-1.383-.292-2.062-.018-.462.07-.965.249-1.392.69-1.651 1.449-3.273 2.152-4.919.29-.678.56-1.373.74-2.085.337-1.318 1.131-2.364 1.917-3.416.914-1.222 1.917-2.38 2.786-3.632a57.654 57.654 0 0 0 2.683-4.248c1.124-1.964 2.177-3.969 3.22-5.977.191-.37.275-.846.258-1.266-.056-1.35.465-2.554.973-3.731.231-.535.834-.937 1.326-1.325.953-.75 1.758-1.617 2.48-2.592.817-1.105 1.775-2.105 2.587-3.213.535-.729.9-1.58 1.38-2.353.311-.5.655-.99 1.048-1.426a145.257 145.257 0 0 1 3.182-3.424c1.59-1.659 3.41-3.015 5.502-3.98.938-.432 1.757-.99 2.453-1.762.897-.997 2.087-1.369 3.393-1.424.27-.01.546-.032.811.005 1.304.177 2.132-.666 2.878-1.479.336-.366.3-1.073.434-1.625a11.657 11.657 0 0 1 1.437-3.448c.537-.864.888-1.853 1.244-2.815.658-1.777 1.338-3.553 1.852-5.373.249-.881.408-1.843.026-2.81-.14-.354.033-.878.17-1.288.325-.973.72-1.923 1.069-2.888.059-.162.042-.355.044-.533 0-.153-.05-.309-.032-.458.091-.759.304-1.521.266-2.272-.033-.654-.3-1.312-.545-1.936-.216-.547-.515-1.068-.833-1.564-.55-.854-.315-1.771-.252-2.665.048-.684.247-1.092.44-1.75C52.62 1.005 54.4.09 54.622.081c1.21-.04.942.03 1.994.51" fill="#ed037c" stroke-width="1.999" stroke="#fdfdfd"/>
    <path d="M278.51 16.323c15.6 22.909-31.907 72.51-53.285 76.702 90.96 7.963 148.246-57.148 53.285-76.702zm-68.795 75.024c-14.39-19.702 27.947-70 53.655-76.708-92.498-5.31-147.831 57.285-53.655 76.708zm160.072-46.462c-2.036 2.036-4.52 3.177-7.819 3.177-3.299 0-5.824-1.142-7.86-3.177-2.932-2.932-2.85-6.558-2.85-11.566 0-5.009-.082-8.635 2.85-11.567 2.036-2.036 4.561-3.176 7.86-3.176 3.299 0 5.783 1.142 7.819 3.176 2.932 2.932 2.891 6.558 2.891 11.567-.001 5.008.041 8.634-2.891 11.566zm-4.196-19.712c-.815-.937-2.077-1.546-3.625-1.546-1.547 0-2.85.611-3.665 1.546-1.1 1.222-1.384 2.567-1.384 8.146 0 5.58.285 6.924 1.384 8.144.815.938 2.118 1.547 3.665 1.547 1.548 0 2.81-.61 3.625-1.547 1.1-1.22 1.425-2.566 1.425-8.144.002-5.577-.324-6.923-1.425-8.146zm18.451 22.644c-4.36 0-6.193-3.054-6.193-6.068V18.82h5.295v22.604c0 1.262.53 1.914 1.872 1.914h2.038v4.48zm7.164-24.84v-4.32h5.418v4.32zm.083 24.84V26.6h5.296v21.219h-5.296zm23.537 0V34.991c0-2.892-1.832-3.87-3.499-3.87-1.67 0-3.546.978-3.546 3.87v12.828h-5.293V26.6h5.17v1.955c1.387-1.466 3.342-2.198 5.297-2.198 2.12 0 3.826.69 5.007 1.872 1.714 1.712 2.157 3.706 2.157 6.029v13.56h-5.293zm30.54.246c-3.172 0-5.778-1.142-7.819-3.176-2.927-2.932-2.844-6.559-2.844-11.566 0-5.01-.083-8.635 2.844-11.567 2.041-2.036 4.647-3.177 7.82-3.177 5.417 0 9.654 3.097 10.672 9.165h-5.745c-.569-2.321-2.035-4.113-4.886-4.113-1.547 0-2.811.57-3.624 1.506-1.095 1.222-1.422 2.607-1.422 8.188 0 5.579.327 6.962 1.422 8.185.816.938 2.077 1.507 3.624 1.507 2.851 0 4.317-1.792 4.886-4.113h5.745c-1.015 6.065-5.291 9.161-10.673 9.161zm29.814-2.606c-1.302 1.384-3.46 2.606-6.595 2.606-3.139 0-5.255-1.222-6.56-2.606-1.918-1.996-2.4-4.4-2.4-8.267 0-3.828.49-6.233 2.4-8.226 1.3-1.387 3.421-2.607 6.56-2.607 3.136 0 5.293 1.22 6.596 2.607 1.915 1.993 2.401 4.398 2.401 8.226 0 3.869-.489 6.27-2.401 8.267zm-4.11-13.4c-.613-.61-1.426-.937-2.485-.937-1.062 0-1.836.326-2.445.937-1.101 1.1-1.223 2.932-1.223 5.131 0 2.2.122 4.073 1.223 5.172.61.613 1.383.938 2.445.938 1.059 0 1.872-.325 2.484-.938 1.098-1.1 1.22-2.971 1.22-5.172 0-2.199-.122-4.03-1.22-5.131zm17.55 15.76c-4.36 0-6.192-3.054-6.192-6.068V18.82h5.296v22.604c0 1.262.53 1.914 1.872 1.914h2.037v4.48zm13.234 0c-4.356 0-6.189-3.054-6.189-6.068V18.82h5.293v22.604c0 1.262.532 1.914 1.874 1.914h2.035v4.48zm10.386-8.961c0 2.729 1.665 4.726 4.64 4.726 2.322 0 3.464-.652 4.806-1.996l3.219 3.135c-2.16 2.16-4.237 3.342-8.063 3.342-5.005 0-9.815-2.28-9.815-10.873 0-6.923 3.745-10.833 9.244-10.833 5.905 0 9.242 4.317 9.242 10.14v2.362h-13.278v-.003zm7.574-5.903c-.571-1.264-1.752-2.2-3.543-2.2-1.795 0-2.972.937-3.549 2.2-.324.774-.443 1.342-.487 2.28h8.06c-.034-.936-.156-1.506-.48-2.28zm17.919 22.888c-3.258 0-5.5-.651-7.697-2.77l3.296-3.341c1.18 1.142 2.362 1.629 4.154 1.629 3.171 0 4.274-2.24 4.274-4.399v-2.158c-1.386 1.546-2.97 2.118-5.051 2.118-2.077 0-3.87-.69-5.055-1.87-1.99-1.996-2.157-4.728-2.157-8.432 0-3.706.165-6.394 2.157-8.39 1.184-1.18 3.017-1.87 5.09-1.87 2.244 0 3.708.61 5.177 2.239v-1.995h5.127v20.445c.006 5.087-3.614 8.794-9.315 8.794zm.53-24.72c-3.136 0-3.464 2.687-3.464 5.497s.328 5.539 3.463 5.539c3.136 0 3.5-2.729 3.5-5.539 0-2.81-.364-5.498-3.5-5.498zm18.892 7.735c0 2.729 1.67 4.726 4.644 4.726 2.322 0 3.463-.652 4.806-1.996l3.219 3.135c-2.16 2.16-4.237 3.342-8.06 3.342-5.011 0-9.821-2.28-9.821-10.873 0-6.923 3.75-10.833 9.244-10.833 5.905 0 9.244 4.317 9.244 10.14v2.362h-13.28v-.003zm7.575-5.903c-.572-1.264-1.753-2.2-3.546-2.2-1.794 0-2.97.937-3.543 2.2-.324.774-.447 1.342-.492 2.28h8.063c-.033-.936-.155-1.506-.482-2.28zM364.707 85.947c-1.358 1.358-3.195 2.118-5.352 2.118-2.156 0-3.994-.755-5.352-2.118-2.036-2.037-2.396-4.993-2.396-7.745 0-2.757.359-5.71 2.396-7.747 1.358-1.356 3.196-2.12 5.352-2.12s3.993.759 5.352 2.12c2.037 2.038 2.397 4.993 2.397 7.747 0 2.754-.357 5.708-2.397 7.745zm-1.356-14.178a5.578 5.578 0 0 0-3.992-1.637 5.579 5.579 0 0 0-3.995 1.637c-1.597 1.6-1.718 4.195-1.718 6.428 0 2.237.12 4.834 1.718 6.428a5.58 5.58 0 0 0 3.995 1.639c1.556 0 2.955-.6 3.992-1.639 1.598-1.599 1.718-4.193 1.718-6.428 0-2.235-.12-4.829-1.718-6.428zm13.022-1.677v17.732h-2.037V70.092h-2.637v-1.518h2.637v-4.15c0-2.914 1.599-5.033 4.633-5.033h1.757v1.795h-1.397c-2.036 0-2.956 1.198-2.956 3.195v4.193h4.352v1.518zm20.209 17.732V59.39h17.254v1.915H398.74V72.53h12.86v1.92h-12.86v11.458h15.097v1.92zm36.144 0V75.882c0-3.713-1.875-5.75-5.314-5.75-3.432 0-5.43 2.116-5.43 5.75v11.942h-2.039v-19.25h2.038v2.277c1.438-1.677 3.354-2.515 5.669-2.515 2.156 0 3.876.637 5.112 1.839 1.278 1.236 1.997 3.074 1.997 5.35v12.302zm15.5 9.427c-2.879 0-4.317-.756-6.351-2.557l1.355-1.358c1.52 1.358 2.557 2.12 4.993 2.12 4.032 0 5.831-2.875 5.831-6.669v-3.435c-1.675 2.24-3.555 2.713-5.709 2.713-1.994 0-3.713-.68-4.714-1.674-1.955-1.957-2.475-5.152-2.475-8.189 0-3.035.52-6.232 2.475-8.19 1-1 2.713-1.676 4.714-1.676 2.157 0 4.032.482 5.71 2.714v-2.476h2.037v20.33c0 4.83-2.876 8.347-7.866 8.347zm.398-27.117c-4.715 0-5.433 4.074-5.433 8.065 0 3.99.718 8.065 5.433 8.065s5.434-4.077 5.434-8.065c0-3.993-.726-8.065-5.434-8.065zm14.979-8.228v-2.514h2.514v2.514zm.235 25.918v-19.25h2.04v19.25zm22.57 0V75.882c0-3.713-1.878-5.75-5.314-5.75-3.432 0-5.434 2.116-5.434 5.75v11.942h-2.038v-19.25h2.038v2.277c1.441-1.677 3.357-2.515 5.669-2.515 2.156 0 3.88.637 5.115 1.839 1.275 1.236 1.994 3.074 1.994 5.35v12.302zm10.46-9.185c0 4.871 2.196 7.59 6.275 7.59 2.272 0 3.674-.681 5.311-2.316l1.518 1.203c-1.955 1.954-3.753 2.955-6.948 2.955-5.315 0-8.19-3.435-8.19-9.866 0-6.188 2.875-9.863 7.706-9.863 4.797 0 7.709 3.51 7.709 9.38v.923h-13.381zm10.667-5.27c-.838-1.995-2.796-3.232-4.995-3.232-2.196 0-4.148 1.237-4.994 3.231-.48 1.202-.597 1.795-.68 3.633h11.34c-.072-1.838-.19-2.434-.671-3.633zm10.228 5.27c0 4.871 2.192 7.59 6.268 7.59 2.276 0 3.674-.681 5.314-2.316l1.518 1.203c-1.958 1.954-3.753 2.955-6.951 2.955-5.315 0-8.19-3.435-8.19-9.866 0-6.188 2.875-9.863 7.709-9.863 4.794 0 7.706 3.51 7.706 9.38v.923h-13.374zm10.66-5.27c-.838-1.995-2.793-3.232-4.994-3.232-2.196 0-4.15 1.237-4.993 3.231-.48 1.202-.6 1.795-.683 3.633h11.34c-.07-1.838-.192-2.434-.67-3.633zm20.127-1.719c-1.153-1.157-2.035-1.518-3.63-1.518-3.314 0-5.152 2.715-5.152 5.832v11.86h-2.035v-19.25h2.035v2.556c1.12-1.796 3.356-2.794 5.632-2.794 1.839 0 3.277.482 4.632 1.839zm5.277-9.744v-2.514h2.517v2.514zm.241 25.918v-19.25h2.035v19.25zm22.566 0V75.882c0-3.713-1.878-5.75-5.318-5.75-3.428 0-5.43 2.116-5.43 5.75v11.942h-2.038v-19.25h2.038v2.277c1.438-1.677 3.353-2.515 5.671-2.515 2.157 0 3.874.637 5.113 1.839 1.275 1.236 1.994 3.074 1.994 5.35v12.302zm15.496 9.427c-2.875 0-4.313-.756-6.35-2.557l1.358-1.358c1.517 1.358 2.554 2.12 4.993 2.12 4.032 0 5.831-2.875 5.831-6.669v-3.435c-1.676 2.24-3.555 2.713-5.71 2.713-1.994 0-3.711-.68-4.715-1.674-1.955-1.957-2.475-5.152-2.475-8.189 0-3.035.52-6.232 2.475-8.19 1.004-1 2.713-1.676 4.715-1.676 2.156 0 4.031.482 5.71 2.714v-2.476H600v20.33c-.003 4.83-2.876 8.347-7.87 8.347zm.399-27.117c-4.712 0-5.43 4.074-5.43 8.065 0 3.99.718 8.065 5.43 8.065 4.714 0 5.433-4.077 5.433-8.065 0-3.993-.722-8.065-5.433-8.065z" fill="#fff"/>
    <path d="M123.793 27.93v55.714" stroke="#fdfdfd" stroke-width="1.999"/>
  </g>
</svg>
