<svg xmlns="http://www.w3.org/2000/svg" height="50" viewBox="0 0 41.424 50" class="owl-logo">
  <g transform="translate(0,-247)">
    <path d="m 25.405423,247.23218 c 0.345041,0.15711 0.50606,0.53373 0.701692,0.84958 0.32258,0.52114 0.669249,1.0284 0.971757,1.56072 0.15223,0.268 0.210496,0.58808 0.348404,0.86618 0.09375,0.18879 0.237189,0.35025 0.501612,0.34146 0.07888,-0.003 0.184564,0.1072 0.23925,0.19086 0.204203,0.31227 0.424031,0.46873 0.848496,0.38779 0.595142,-0.11361 1.207861,-0.0864 1.810814,0.0527 0.134762,0.031 0.294479,-0.0621 0.444647,-0.0792 0.214837,-0.0244 0.432604,-0.0521 0.647224,-0.042 0.436943,0.0206 0.872584,0.0669 1.309094,0.0981 0.037,0.003 0.0932,-0.0165 0.112518,-0.0446 0.259106,-0.37943 0.685741,-0.27646 1.04402,-0.36457 0.401028,-0.0986 0.813233,-0.15917 1.205256,-0.28439 0.175775,-0.0562 0.307173,-0.24044 0.47123,-0.34753 0.180767,-0.11794 0.397991,-0.18825 0.558902,-0.32638 0.196391,-0.16861 0.358712,-0.37987 0.520057,-0.58494 0.09982,-0.12684 0.178054,-0.27267 0.252813,-0.41676 0.283194,-0.5448 0.826362,-0.83776 1.236179,-1.25886 0.172738,-0.17762 0.480236,-0.24771 0.739885,-0.31086 0.337988,-0.0822 0.646247,0.0609 0.93313,0.23426 0.283628,0.17143 0.298059,0.48837 0.332997,0.75409 0.0345,0.26193 -0.05045,0.54079 -0.08984,0.81107 -0.08626,0.59123 -0.175559,1.18193 -0.266159,1.77251 -0.09852,0.64288 -0.489133,1.13701 -0.847737,1.64621 -0.118269,0.16786 -0.310537,0.30837 -0.362076,0.49153 -0.05349,0.18933 -0.03331,0.44247 0.05284,0.61998 0.264314,0.54458 0.622376,1.04771 0.71417,1.66401 0.04286,0.28786 0.07432,0.57941 0.08203,0.86998 0.03505,1.33655 0.331261,2.60723 0.95049,3.7948 0.273754,0.52505 0.407214,1.08341 0.457993,1.66618 0.03939,0.45322 0.107527,0.90828 0.09548,1.36074 -0.01617,0.60773 -0.06489,1.21904 -0.160585,1.81906 -0.08398,0.52668 -0.423597,0.94572 -0.74021,1.36194 -0.147782,0.19422 -0.310754,0.37726 -0.454087,0.57463 -0.03071,0.0421 -0.02333,0.12912 -0.0056,0.18685 0.333973,1.08926 0.474377,2.19893 0.509966,3.34114 0.01866,0.59851 -0.172087,1.08005 -0.394085,1.58328 -0.110673,0.25086 -0.222974,0.50455 -0.368369,0.73555 -0.348621,0.55369 -0.479151,1.18518 -0.647982,1.79877 -0.08485,0.30847 -0.0051,0.66133 -0.08333,0.97317 -0.15516,0.61781 -0.323015,1.24062 -0.574526,1.82296 -0.15082,0.34906 -0.445081,0.65016 -0.721114,0.92673 -0.209086,0.20941 -0.320736,0.43532 -0.355348,0.71341 -0.09668,0.77417 -0.435208,1.4495 -0.840794,2.10074 -0.171543,0.27549 -0.324425,0.56291 -0.478825,0.84882 -0.48436,0.89645 -1.082214,1.68842 -1.982141,2.21444 -0.09906,0.058 -0.176535,0.16428 -0.244892,0.2615 -0.319543,0.45441 -0.589499,0.95222 -0.959388,1.35987 -0.383017,0.4223 -0.847737,0.77558 -1.302692,1.12529 -0.205397,0.15776 -0.467758,0.24912 -0.714604,0.34352 -0.418063,0.15972 -0.718835,0.44888 -0.994108,0.78969 -0.235453,0.29144 -0.486096,0.57984 -0.772328,0.81909 -0.517453,0.43261 -0.846001,1.00301 -1.221314,1.54227 -0.25889,0.37163 -0.502805,0.7592 -0.804987,1.09285 -0.132158,0.14572 -0.388443,0.19172 -0.597637,0.24999 -0.126081,0.0351 -0.269848,0.006 -0.456583,0.006 0.306522,0.29502 0.645704,0.34765 0.990094,0.39268 0.304569,0.0399 0.606643,0.10329 0.911971,0.13139 0.457668,0.0421 0.725563,0.39767 1.073968,0.61945 0.403524,0.25683 0.803467,0.51951 1.202326,0.78372 0.05881,0.0389 0.153641,0.10937 0.146154,0.14941 -0.06044,0.328 0.198128,0.44226 0.391047,0.57952 0.519297,0.36945 0.850667,0.81996 0.768747,1.49669 -0.01487,0.12294 0.03494,0.25271 0.03581,0.37933 5.42e-4,0.0686 -0.02398,0.15147 -0.06792,0.19986 -0.02072,0.0227 -0.133785,-8.6e-4 -0.17111,-0.0379 -0.132158,-0.13108 -0.249884,-0.27669 -0.372818,-0.4172 -0.152556,-0.17437 -0.304895,-0.34916 -0.463418,-0.5308 -0.325945,0.41969 -0.327464,0.42403 -0.781225,0.26377 -0.337554,-0.11903 -0.674783,-0.2412 -1.003657,-0.3816 -0.161236,-0.0688 -0.24435,-0.003 -0.272561,0.12662 -0.07313,0.33712 -0.176969,0.67478 -0.05751,1.02709 0.01595,0.0474 -0.03385,0.16601 -0.06912,0.17317 -0.127817,0.0259 -0.264315,0.0335 -0.393651,0.0174 -0.06695,-0.008 -0.125972,-0.0809 -0.18847,-0.12457 0.179248,-0.31672 -0.223083,-1.14981 -0.684657,-1.35727 -0.06434,0.13455 -0.145286,0.26475 -0.190423,0.40635 -0.09896,0.31075 -0.268329,0.36381 -0.512245,0.13519 -0.189881,-0.17783 -0.374988,-0.36175 -0.552066,-0.55228 -0.424682,-0.45647 -0.876707,-0.88539 -1.436368,-1.16587 -0.391915,-0.19639 -0.814752,-0.33137 -1.224136,-0.49249 -0.134761,-0.0531 -0.26898,-0.10872 -0.406996,-0.15223 -0.406671,-0.12815 -0.755293,0.0971 -1.187136,0.17284 0.264748,0.31379 0.48425,0.59558 0.726322,0.85631 0.420233,0.45279 0.534162,0.98315 0.417738,1.56983 -0.051,0.25726 -0.13704,0.50855 -0.222541,0.75714 -0.02083,0.0601 -0.102427,0.0995 -0.188036,0.17762 -0.03179,-0.34884 -0.06554,-0.63573 -0.0817,-0.92359 -0.01226,-0.21896 -0.134111,-0.33386 -0.315528,-0.42858 -0.1378,-0.072 -0.208761,-0.0141 -0.275057,0.0871 -0.1812,0.27658 -0.503456,0.32606 -0.767336,0.35253 -0.164166,0.0165 -0.365982,-0.22265 -0.531775,-0.36858 -0.407214,-0.35904 -0.797392,-0.7375 -1.207427,-1.09329 -0.145611,-0.12629 -0.328548,-0.2093 -0.552499,-0.28493 0.122283,0.37553 0.236971,0.75399 0.368695,1.12638 0.130746,0.36913 0.291006,0.72795 0.4147,1.09925 0.104055,0.31162 0.03776,0.39886 -0.280373,0.38301 -0.444973,-0.0221 -0.888969,-0.0643 -1.332965,-0.10438 -0.05208,-0.005 -0.120981,-0.0365 -0.147673,-0.078 -0.188471,-0.29296 -0.342979,-0.61185 -0.558576,-0.88224 -0.162212,-0.20323 -0.386923,-0.36468 -0.605232,-0.51333 -0.47926,-0.32649 -1.017654,-0.52082 -1.589901,-0.59558 -0.196283,-0.0255 -0.423597,-0.002 -0.603496,0.076 -0.391697,0.16959 -0.765492,0.38204 -1.139503,0.58971 -0.195198,0.1084 -0.306305,0.23394 -0.246737,0.51756 0.06413,0.30544 -0.123477,0.59677 -0.505951,0.5831 -0.151146,-0.005 -0.345692,-0.0902 -0.481973,0.14084 0.250426,0.0314 0.215271,0.0755 0.153424,0.13509 -0.247496,0.23816 -0.542083,0.10904 -0.813993,0.12043 -0.05566,0.002 -0.172195,-0.14528 -0.16742,-0.21755 0.03299,-0.49445 0.05273,-0.99541 0.15657,-1.47694 0.05132,-0.23719 0.2603,-0.44736 0.421102,-0.65157 0.170133,-0.21614 0.366416,-0.41209 0.554344,-0.61402 0.285255,-0.30674 0.26681,-0.5206 -0.02224,-0.8243 -0.443128,-0.46526 -0.937904,-0.8536 -1.504618,-1.15816 -0.178813,-0.0961 -0.325076,-0.25314 -0.486203,-0.38237 0.01487,-0.0228 -0.105249,0.0891 -0.1616706,0.17946 -0.2996865,0.48002 -0.8075911,0.68162 -1.2716603,0.92771 -0.2606252,0.13812 -0.4709049,0.30066 -0.6183611,0.5474 -0.6132614,1.02633 -1.4710896,1.84217 -2.3198035,2.66137 -0.1322657,0.12771 -0.394844,0.11295 -0.5897162,0.18446 -0.4127471,0.15158 -0.8262537,0.30391 -1.2278249,0.48197 -0.1710015,0.0758 -0.297408,0.0695 -0.4783917,0.0151 -0.4224039,-0.12717 -0.8631449,-0.19368 -1.2968331,-0.28287 -0.6207482,-0.12782 -1.150245,-0.38692 -1.41564441,-1.00854 -0.10166772,-0.23838 -0.23577797,-0.42642 -0.48642092,-0.53492 -0.2333909,-0.10112 -0.28330248,-0.43781 -0.25020893,-0.80151 0.09645956,-1.0616 0.60143456,-1.97422 1.05150686,-2.89748 0.4483362,-0.92011 0.9870558,-1.79627 1.4948519,-2.68676 0.088105,-0.1544 0.206048,-0.29752 0.3326715,-0.42317 0.45821,-0.45408 0.6111999,-1.07125 0.9385548,-1.66845 -0.5066026,0.1557 -0.9532028,0.29285 -1.3893866,0.42685 -0.048176,-0.31846 -0.1193538,-0.62107 -0.1311806,-0.92586 -0.00792,-0.20735 0.031792,-0.43282 0.111867,-0.62455 0.3095603,-0.74086 0.6501526,-1.4687 0.9658976,-2.20717 0.1299872,-0.30403 0.2507515,-0.61619 0.3322376,-0.93574 0.1509282,-0.59134 0.5072535,-1.06073 0.8598897,-1.53261 0.4100345,-0.54837 0.8599983,-1.06821 1.2500682,-1.62983 0.42848,-0.61695 0.8311363,-1.25441 1.2041711,-1.9063 0.504107,-0.88115 0.9766395,-1.78086 1.4442893,-2.68209 0.086152,-0.16612 0.1238025,-0.37933 0.1159902,-0.56802 -0.024956,-0.60588 0.2086521,-1.14612 0.4369434,-1.67421 0.1036207,-0.2399 0.3739028,-0.42034 0.5950328,-0.59438 0.4275039,-0.33636 0.7887119,-0.72567 1.1124859,-1.16326 0.36685,-0.49565 0.796632,-0.94463 1.161204,-1.44169 0.240009,-0.32714 0.404067,-0.70907 0.619446,-1.05574 0.139318,-0.22438 0.293502,-0.44399 0.469711,-0.64006 0.467216,-0.51995 0.944197,-1.03154 1.427906,-1.53619 0.713627,-0.74455 1.530441,-1.35315 2.468887,-1.78597 0.420885,-0.194 0.788603,-0.44475 1.100659,-0.79099 0.402873,-0.44725 0.936493,-0.61413 1.522737,-0.63865 0.121198,-0.005 0.244892,-0.0147 0.364029,0.002 0.585051,0.0797 0.956458,-0.29871 1.291082,-0.66339 0.15082,-0.16438 0.134762,-0.48165 0.19509,-0.72936 0.133676,-0.54957 0.341785,-1.0604 0.644619,-1.54737 0.240877,-0.38736 0.398424,-0.83135 0.558467,-1.26309 0.295238,-0.79728 0.600349,-1.59402 0.830919,-2.41083 0.111542,-0.39561 0.182937,-0.82723 0.0115,-1.26092 -0.06282,-0.15907 0.01508,-0.39387 0.07649,-0.57822 0.145612,-0.43662 0.322798,-0.86249 0.479586,-1.29564 0.02637,-0.0727 0.01899,-0.15917 0.01953,-0.23936 3.26e-4,-0.0686 -0.02213,-0.13855 -0.01411,-0.20528 0.04091,-0.3406 0.136497,-0.68271 0.119354,-1.0195 -0.01497,-0.29372 -0.134328,-0.58907 -0.244676,-0.86901 -0.09668,-0.24511 -0.230895,-0.47904 -0.373903,-0.70158 -0.246411,-0.38345 -0.141054,-0.79479 -0.112952,-1.19603 0.02148,-0.30663 0.110782,-0.49 0.19726,-0.78546 0.06413,-0.21907 0.862927,-0.6303 0.962859,-0.63366 0.542517,-0.018 0.422621,0.0136 0.894611,0.2284" />
  </g>
</svg>
