<svg xmlns="http://www.w3.org/2000/svg" width="77.994" height="25mm" viewBox="0 0 20.636 25">
  <g stroke-width="1.034" fill="#888">
    <path d="M7.503 1.526c.515 0 .934.427.934.952a.94.94 0 0 1-.934.945.94.94 0 0 1-.934-.945c0-.525.418-.952.934-.952M10.195 0c-.85.004-1.664.077-2.378.203-2.107.372-2.49 1.151-2.49 2.588v1.897h4.978v.632H3.46c-1.446 0-2.714.87-3.11 2.524-.456 1.896-.477 3.079 0 5.059.354 1.473 1.2 2.523 2.646 2.523h1.711v-2.274c0-1.643 1.422-3.092 3.11-3.092h4.971c1.384 0 2.489-1.14 2.489-2.53V2.79c0-1.348-1.138-2.362-2.489-2.587A15.494 15.494 0 0 0 10.195 0"/>
    <path d="M13.102 17.323a.94.94 0 0 1 .934.945.943.943 0 0 1-.934.952.944.944 0 0 1-.935-.952.94.94 0 0 1 .935-.945M15.898 5.32v2.21c0 1.714-1.453 3.156-3.11 3.156H7.817c-1.362 0-2.489 1.166-2.489 2.53v4.74c0 1.348 1.173 2.141 2.489 2.529 1.575.463 3.086.547 4.971 0 1.254-.363 2.49-1.094 2.49-2.53v-1.897h-4.973v-.632h7.461c1.446 0 1.985-1.01 2.489-2.524.52-1.559.497-3.058 0-5.058-.358-1.44-1.04-2.524-2.49-2.524z"/>
    <g clip-path="url(#clipPath868)" transform="matrix(.36545 0 0 -.36545 -115.198 74.808)">
      <path d="M361.824 139.828c0-1.954-8.172-3.539-18.252-3.539-10.08 0-18.252 1.585-18.252 3.54 0 1.954 8.172 3.538 18.252 3.538 10.08 0 18.252-1.584 18.252-3.539"/>
    </g>
  </g>
</svg>
